<?xml version="1.0"?>
<svg xmlns="http://www.w3.org/2000/svg" xmlns:xlink="http://www.w3.org/1999/xlink" viewBox="0 0 512 512" width="512" height="512"><defs><linearGradient id="linear-gradient" x1="16" y1="256" x2="494.648" y2="256" gradientUnits="userSpaceOnUse"><stop offset="0" stop-color="#41dfd0"/><stop offset="1" stop-color="#ee83ef"/></linearGradient></defs><g id="gradient"><path d="M412.246,368a26.347,26.347,0,0,0-20.06,9.25,26.321,26.321,0,0,0-5.864-5.1,181.09,181.09,0,0,0,19.05-23.675L392.1,339.53a164.7,164.7,0,0,1-24.829,28.934,26.335,26.335,0,0,0-15.155,8.722,26.356,26.356,0,0,0-42.761,3.889A24.02,24.02,0,0,0,288,368H244.1a61.759,61.759,0,0,0-48.94-24H180.844a61.755,61.755,0,0,0-43.168,17.533,164.631,164.631,0,0,1-22.619-29.63l-13.741,8.2A180.526,180.526,0,0,0,121.85,368H80v-8a8,8,0,0,0-8-8H24a8,8,0,0,0-8,8V488a8,8,0,0,0,8,8H136a8,8,0,0,0,8-8v-6.775L246.869,495.92A7.934,7.934,0,0,0,248,496a8.137,8.137,0,0,0,.883-.049l144-16a8,8,0,0,0,5.968-3.819l24.124-40a7.951,7.951,0,0,0,.5-.981L436.5,404.775A26.383,26.383,0,0,0,412.246,368ZM64,480H32V368H64Zm244.132-56,.7-1.636a8.017,8.017,0,0,0,2.443-3.052,179.561,179.561,0,0,0,26.056-10.73L330.725,424Zm45.507-12.849h0l7.221-16.85q6.66-4.774,12.89-10.164a10.371,10.371,0,0,1,7.915,14.336l.1.045L370.849,424H348.132ZM332.122,384a10.208,10.208,0,0,1,8.523,4.474,163.818,163.818,0,0,1-22.052,11.119l3.985-9.3A10.372,10.372,0,0,1,332.122,384ZM195.156,360a45.807,45.807,0,0,1,38.188,20.438A8,8,0,0,0,240,384h48a8.009,8.009,0,0,1,8,8v15.062c-1.324.333-2.656.638-3.99.938H280a7.991,7.991,0,0,0-6.251,3.022,163.256,163.256,0,0,1-124.418-38.475A45.779,45.779,0,0,1,180.844,360ZM128,480H80V384h48Zm293.79-81.527-12.8,29.868-21.8,36.144L248.126,479.937,144,465.062V388.885A179.846,179.846,0,0,0,279.182,426.5l11.161,11.16A8,8,0,0,0,296,440h80.124a8,8,0,0,0,7.353-4.849L402.7,390.293A10.374,10.374,0,0,1,412.246,384a10.383,10.383,0,0,1,9.544,14.473ZM486.648,16h-112a8,8,0,0,0-8,8v6.776L263.78,16.08a7.948,7.948,0,0,0-2.015-.031l-144,16a8,8,0,0,0-5.967,3.819l-24.124,40a8.1,8.1,0,0,0-.5.981L74.153,107.224a26.382,26.382,0,0,0,44.31,27.526,26.305,26.305,0,0,0,6.716,5.621,180.048,180.048,0,0,0-32.693,48.275l14.527,6.706a164.1,164.1,0,0,1,38.146-52.213,26.339,26.339,0,0,0,13.365-8.318,26.367,26.367,0,0,0,42.766-3.9A24.021,24.021,0,0,0,222.648,144h43.9a61.76,61.76,0,0,0,48.941,24H329.8a61.75,61.75,0,0,0,43.866-18.226,164.058,164.058,0,0,1,31.316,45.578l14.528-6.706A180.1,180.1,0,0,0,390.153,144h40.5v8a8,8,0,0,0,8,8h48a8,8,0,0,0,8-8V24A8,8,0,0,0,486.648,16ZM98.4,128a10.384,10.384,0,0,1-9.544-14.474l12.8-29.868,21.8-36.143L262.522,32.063,366.648,46.939v75.1c-4-3.115-8.116-6.092-12.386-8.879A179.3,179.3,0,0,0,256,84a181.472,181.472,0,0,0-24.387,1.65L220.305,74.343A8,8,0,0,0,214.648,72H134.524a8,8,0,0,0-7.353,4.849l-19.225,44.858A10.372,10.372,0,0,1,98.4,128Zm39.709-.025a10.364,10.364,0,0,1-9.129-14.448l-.1-.045L139.8,88h22.716l-5.506,12.849h0l-7.842,18.3Q143.461,123.358,138.112,127.975ZM179.924,88h22.592l-.7,1.636a8.006,8.006,0,0,0-2.64,3.529,178.767,178.767,0,0,0-26.225,11.107Zm-1.4,40a10.191,10.191,0,0,1-8.1-3.911,163.077,163.077,0,0,1,21.347-11.019l-3.7,8.637A10.37,10.37,0,0,1,178.527,128Zm136.966,24a45.8,45.8,0,0,1-38.188-20.438A8,8,0,0,0,270.648,128h-48a8.009,8.009,0,0,1-8-8V105.268c1.748-.454,3.5-.872,5.267-1.268h10.733a8,8,0,0,0,6.128-2.863A165.594,165.594,0,0,1,256,100a163.34,163.34,0,0,1,89.517,26.562,165.252,165.252,0,0,1,16.438,12.277A45.778,45.778,0,0,1,329.8,152Zm67.155-24V32h48v96Zm96,16h-32V32h32Zm-59.234,81.173-23.3-12.059A201.019,201.019,0,0,0,306.675,192h-27.92a135.563,135.563,0,0,0-75.439,22.842L189.578,224H144a72.081,72.081,0,0,0-72,72v8a8,8,0,0,0,8,8h48.022a39.956,39.956,0,0,0,63.956,0H352.022a39.956,39.956,0,0,0,63.956,0h6.9a39.936,39.936,0,0,0,33.305-17.815l6.48-9.76A8,8,0,0,0,464,280,56.092,56.092,0,0,0,419.414,225.173ZM320,249.889v11.3L292.155,296H232V240h83.056ZM324.944,224l7.106-14.21A185.243,185.243,0,0,1,381.668,224Zm-46.189-16h27.92c2.76,0,5.519.083,8.276.208L307.056,224H218.912A119.567,119.567,0,0,1,278.755,208ZM160,312a24,24,0,1,1,24-24A24.028,24.028,0,0,1,160,312Zm0-64a40.014,40.014,0,0,0-39.195,48H88a55.823,55.823,0,0,1,2.341-16H104V264H98.083A55.966,55.966,0,0,1,144,240h72v56H199.2A40.014,40.014,0,0,0,160,248Zm224,64a24,24,0,1,1,24-24A24.028,24.028,0,0,1,384,312Zm58.864-26.678A23.952,23.952,0,0,1,423.2,295.99a40,40,0,1,0-78.392.01H312.646l21.6-27A8,8,0,0,0,336,264V248a7.994,7.994,0,0,0-.845-3.578L332.944,240H408a39.957,39.957,0,0,1,31.969,16H424v16h23.194a39.833,39.833,0,0,1,.74,5.686Z" style="fill:url(#linear-gradient)"/></g></svg>
